<?xml version="1.0" standalone="no"?>
<!DOCTYPE svg PUBLIC "-//W3C//DTD SVG 20010904//EN"
 "http://www.w3.org/TR/2001/REC-SVG-20010904/DTD/svg10.dtd">
<svg version="1.0" xmlns="http://www.w3.org/2000/svg"
 width="512.000000pt" height="512.000000pt" viewBox="0 0 512.000000 512.000000"
 preserveAspectRatio="xMidYMid meet">

<g transform="translate(0.000000,512.000000) scale(0.100000,-0.100000)"
fill="#000000" stroke="none">
<path d="M2035 5113 c-77 -11 -197 -48 -271 -83 -261 -122 -444 -339 -525
-625 -22 -77 -23 -98 -27 -532 l-3 -453 150 0 151 0 0 408 c0 463 4 495 71
632 83 169 260 307 444 345 102 21 968 21 1070 0 184 -38 361 -176 444 -345
67 -137 71 -169 71 -632 l0 -408 151 0 150 0 -4 453 c-3 432 -5 456 -26 532
-96 340 -349 593 -686 687 -78 21 -96 22 -605 24 -289 1 -538 0 -555 -3z"/>
<path d="M1055 3090 c-194 -41 -352 -179 -417 -368 l-23 -67 0 -1105 0 -1105
23 -67 c57 -163 178 -286 348 -350 l59 -23 1480 -3 c1636 -3 1553 -6 1687 60
84 42 194 152 236 236 65 131 63 93 60 1287 l-3 1080 -26 67 c-64 165 -178
277 -345 340 l-59 23 -1490 2 c-820 0 -1508 -3 -1530 -7z m1679 -719 c165 -58
291 -185 348 -349 32 -95 32 -249 0 -344 -56 -162 -195 -300 -354 -352 -17 -5
-18 -26 -18 -256 0 -232 -2 -254 -20 -290 -23 -45 -80 -80 -131 -80 -46 0
-108 39 -130 82 -17 34 -19 61 -19 288 0 230 -1 251 -17 257 -167 58 -299 188
-355 351 -32 95 -32 249 0 344 81 236 300 386 547 374 55 -3 113 -13 149 -25z"/>
<path d="M2471 2083 c-88 -31 -161 -136 -161 -233 0 -132 118 -250 250 -250
60 0 130 30 175 75 188 188 -12 497 -264 408z"/>
</g>
</svg>
