<?xml version="1.0" standalone="no"?>
<!DOCTYPE svg PUBLIC "-//W3C//DTD SVG 20010904//EN"
 "http://www.w3.org/TR/2001/REC-SVG-20010904/DTD/svg10.dtd">
<svg version="1.0" xmlns="http://www.w3.org/2000/svg"
 width="512.000000pt" height="512.000000pt" viewBox="0 0 512.000000 512.000000"
 preserveAspectRatio="xMidYMid meet">

<g transform="translate(0.000000,512.000000) scale(0.100000,-0.100000)"
fill="#000000" stroke="none">
<path d="M2430 5114 c-301 -39 -599 -231 -759 -488 -110 -177 -155 -340 -154
-561 0 -187 25 -295 107 -460 193 -390 619 -625 1041 -576 368 42 671 252 831
576 203 410 125 887 -199 1209 -194 193 -428 293 -702 301 -71 2 -146 1 -165
-1z"/>
<path d="M2414 2729 c-760 -56 -1421 -571 -1664 -1296 -85 -254 -100 -386
-100 -862 l0 -359 33 -64 c35 -68 95 -118 165 -138 25 -6 603 -10 1712 -10
1109 0 1687 4 1712 10 70 20 130 70 165 138 l33 64 0 359 c0 198 -5 403 -11
457 -94 868 -769 1568 -1626 1686 -146 20 -286 25 -419 15z"/>
</g>
</svg>
